<?xml version="1.0"?><svg width="793.7007874015749" height="1122.5196850393702" xmlns="http://www.w3.org/2000/svg">
 <title>Arrow Light Blue</title>

 <g>
  <title>Layer 1</title>
  <g id="layer1">
   <path fill="#0FF" fill-rule="evenodd" stroke="#0FF" stroke-width="2" stroke-miterlimit="4" stroke-dashoffset="0" id="rect1061" d="m335.19635,268.133087c-15.144836,0 -30.268585,5.831085 -41.875,17.437469c-23.212799,23.21283 -23.212799,60.568481 0,83.78125l118.78125,118.8125l-274.90625,0c-32.827873,0 -59.249992,26.45343 -59.249992,59.28125c0,32.827881 26.422119,59.25 59.249992,59.25l274.9375,0l-118.8125,118.8125c-23.212799,23.21283 -23.21283,60.56842 0,83.78125c23.21283,23.21283 60.568451,23.21283 83.78125,0l219.96875,-219.96875c23.21283,-23.212769 23.21283,-60.568481 0,-83.78125l-219.96875,-219.96875c-11.606415,-11.606384 -26.761414,-17.437469 -41.90625,-17.437469z"/>
  </g>
 </g>
</svg>